<?xml version="1.0" encoding="UTF-8" standalone="no"?>
<svg
   xmlns:dc="http://purl.org/dc/elements/1.1/"
   xmlns:cc="http://creativecommons.org/ns#"
   xmlns:rdf="http://www.w3.org/1999/02/22-rdf-syntax-ns#"
   xmlns:svg="http://www.w3.org/2000/svg"
   xmlns="http://www.w3.org/2000/svg"
   xmlns:sodipodi="http://sodipodi.sourceforge.net/DTD/sodipodi-0.dtd"
   xmlns:inkscape="http://www.inkscape.org/namespaces/inkscape"
   version="1.1"
   x="0px"
   y="0px"
   viewBox="0 0 100 100"
   enable-background="new 0 0 100 100"
   xml:space="preserve"
   id="svg2"
   inkscape:version="0.48.4 r9939"
   width="100%"
   height="100%"
   sodipodi:docname="2-alert.svg"><metadata
     id="metadata10"><rdf:RDF><cc:Work
         rdf:about=""><dc:format>image/svg+xml</dc:format><dc:type
           rdf:resource="http://purl.org/dc/dcmitype/StillImage" /><dc:title></dc:title></cc:Work></rdf:RDF></metadata><defs
     id="defs8" /><sodipodi:namedview
     pagecolor="#ffffff"
     bordercolor="#666666"
     borderopacity="1"
     objecttolerance="10"
     gridtolerance="10"
     guidetolerance="10"
     inkscape:pageopacity="0"
     inkscape:pageshadow="2"
     inkscape:window-width="1366"
     inkscape:window-height="705"
     id="namedview6"
     showgrid="false"
     inkscape:zoom="1.888"
     inkscape:cx="-32.627119"
     inkscape:cy="62.5"
     inkscape:window-x="-8"
     inkscape:window-y="-8"
     inkscape:window-maximized="1"
     inkscape:current-layer="svg2" /><path
     d="M 81.9,2 H 18.1 C 12,2 7.1,7 7.1,13 v 54.2 c 0,6.1 4.9,11 11,11 H 35.5 L 50,98 64.5,78.3 h 17.4 c 6.1,0 11,-4.9 11,-11 V 13 C 92.9,7 88,2 81.9,2 z M 46.6,19.1 h 6.8 c 0.8,0 1.4,0.7 1.4,1.4 l -0.7,27.6 c 0,0.7 -0.6,1.2 -1.2,1.2 H 47.2 C 46.5,49.3 46,48.8 46,48.1 L 45.3,20.5 c -0.1,-0.8 0.5,-1.4 1.3,-1.4 z m -1.4,36.5 c 0,-1.2 0.9,-2.1 2.1,-2.1 h 5.4 c 1.2,0 2.1,0.9 2.1,2.1 v 3.5 c 0,1.2 -0.9,2.1 -2.1,2.1 h -5.4 c -1.2,0 -2.1,-0.9 -2.1,-2.1 v -3.5 z"
     id="path4"
     inkscape:connector-curvature="0"
     style="fill:#9bc12b;fill-opacity:1" /></svg>